<svg width="75" height="62" viewBox="0 0 75 62" fill="none" xmlns="http://www.w3.org/2000/svg">
<path fill-rule="evenodd" clip-rule="evenodd" d="M18.75 41.3955C8.39466 41.3955 0 32.3293 0 21.1455L18.75 21.1455C8.39466 21.1455 0 12.0793 0 0.895508H37.5H75C75 12.0793 66.6053 21.1455 56.25 21.1455L75 21.1455C75 32.3293 66.6053 41.3955 56.25 41.3955H75C75 52.5793 66.6053 61.6455 56.25 61.6455C45.8947 61.6455 37.5 52.5793 37.5 41.3955C37.5 52.5793 29.1053 61.6455 18.75 61.6455C8.39466 61.6455 0 52.5793 0 41.3955H18.75ZM18.75 21.1455C29.1053 21.1455 37.5 12.0793 37.5 0.895508C37.5 12.0793 45.8947 21.1455 56.25 21.1455L37.5 21.1455L18.75 21.1455ZM18.75 41.3955C29.1053 41.3955 37.5 32.3293 37.5 21.1455C37.5 32.3293 45.8947 41.3955 56.25 41.3955H37.5H18.75Z" fill="#A7F8D7"/>
</svg>
