<svg width="75" height="67" fill="none" xmlns="http://www.w3.org/2000/svg"><path fill-rule="evenodd" clip-rule="evenodd" d="M70.763 15.791c1.66-1.308 2.154-2.415 2.154-3.229 0-.814-.493-1.92-2.154-3.23C69.127 8.044 66.63 6.79 63.358 5.7 56.836 3.526 47.694 2.145 37.5 2.145S18.164 3.525 11.642 5.7C8.371 6.79 5.873 8.043 4.236 9.333c-1.66 1.308-2.153 2.415-2.153 3.23 0 .813.493 1.92 2.153 3.228 1.637 1.29 4.135 2.543 7.406 3.633C18.164 21.6 27.306 22.98 37.5 22.98s19.336-1.38 25.858-3.555c3.271-1.09 5.769-2.343 7.405-3.633ZM37.5 25.062c20.71 0 37.5-5.596 37.5-12.5C75 5.66 58.21.062 37.5.062S0 5.66 0 12.562c0 6.904 16.79 12.5 37.5 12.5Z" fill="#BEF5A4"/><path fill-rule="evenodd" clip-rule="evenodd" d="M70.763 24.125c1.66-1.309 2.154-2.416 2.154-3.23 0-.814-.493-1.92-2.154-3.229-1.636-1.29-4.134-2.542-7.405-3.633C56.836 11.86 47.694 10.48 37.5 10.48s-19.336 1.38-25.858 3.554c-3.271 1.09-5.769 2.343-7.406 3.633-1.66 1.308-2.153 2.415-2.153 3.23 0 .813.493 1.92 2.153 3.229 1.637 1.29 4.135 2.542 7.406 3.633 6.522 2.174 15.664 3.554 25.858 3.554s19.336-1.38 25.858-3.554c3.271-1.09 5.769-2.343 7.405-3.633ZM37.5 33.395c20.71 0 37.5-5.596 37.5-12.5 0-6.903-16.79-12.5-37.5-12.5S0 13.992 0 20.895c0 6.904 16.79 12.5 37.5 12.5Z" fill="#BEF5A4"/><path fill-rule="evenodd" clip-rule="evenodd" d="M70.763 32.458c1.66-1.308 2.154-2.415 2.154-3.23 0-.813-.493-1.92-2.154-3.229-1.636-1.29-4.134-2.542-7.405-3.633-6.522-2.174-15.664-3.554-25.858-3.554s-19.336 1.38-25.858 3.554C8.371 23.457 5.873 24.71 4.236 26c-1.66 1.308-2.153 2.415-2.153 3.229 0 .814.493 1.92 2.153 3.23C5.873 33.747 8.371 35 11.642 36.09c6.522 2.174 15.664 3.554 25.858 3.554s19.336-1.38 25.858-3.554c3.271-1.09 5.769-2.343 7.405-3.633ZM37.5 41.728c20.71 0 37.5-5.596 37.5-12.5 0-6.903-16.79-12.5-37.5-12.5S0 22.326 0 29.229c0 6.904 16.79 12.5 37.5 12.5Z" fill="#BEF5A4"/><path fill-rule="evenodd" clip-rule="evenodd" d="M70.763 40.791c1.66-1.308 2.154-2.415 2.154-3.229 0-.814-.493-1.92-2.154-3.23-1.636-1.289-4.134-2.542-7.405-3.632-6.522-2.174-15.664-3.555-25.858-3.555s-19.336 1.38-25.858 3.555c-3.271 1.09-5.769 2.343-7.406 3.633-1.66 1.308-2.153 2.415-2.153 3.23 0 .813.493 1.92 2.153 3.228 1.637 1.29 4.135 2.543 7.406 3.634 6.522 2.174 15.664 3.554 25.858 3.554s19.336-1.38 25.858-3.554c3.271-1.091 5.769-2.344 7.405-3.634ZM37.5 50.062c20.71 0 37.5-5.596 37.5-12.5 0-6.903-16.79-12.5-37.5-12.5S0 30.66 0 37.562c0 6.904 16.79 12.5 37.5 12.5Z" fill="#BEF5A4"/><path fill-rule="evenodd" clip-rule="evenodd" d="M70.763 49.125c1.66-1.309 2.154-2.416 2.154-3.23 0-.814-.493-1.92-2.154-3.229-1.636-1.29-4.134-2.542-7.405-3.633C56.836 36.86 47.694 35.48 37.5 35.48s-19.336 1.38-25.858 3.554c-3.271 1.09-5.769 2.343-7.406 3.633-1.66 1.309-2.153 2.416-2.153 3.23 0 .813.493 1.92 2.153 3.229 1.637 1.29 4.135 2.542 7.406 3.633 6.522 2.174 15.664 3.554 25.858 3.554s19.336-1.38 25.858-3.554c3.271-1.09 5.769-2.343 7.405-3.633ZM37.5 58.395c20.71 0 37.5-5.596 37.5-12.5 0-6.903-16.79-12.5-37.5-12.5S0 38.992 0 45.895c0 6.904 16.79 12.5 37.5 12.5Z" fill="#BEF5A4"/><path fill-rule="evenodd" clip-rule="evenodd" d="M70.763 57.458c1.66-1.308 2.154-2.415 2.154-3.23 0-.813-.493-1.92-2.154-3.229-1.636-1.29-4.134-2.542-7.405-3.633-6.522-2.173-15.664-3.554-25.858-3.554s-19.336 1.38-25.858 3.554C8.371 48.457 5.873 49.71 4.236 51c-1.66 1.309-2.153 2.416-2.153 3.23 0 .814.493 1.92 2.153 3.23C5.873 58.747 8.371 60 11.642 61.09c6.522 2.174 15.664 3.554 25.858 3.554s19.336-1.38 25.858-3.554c3.271-1.09 5.769-2.343 7.405-3.633ZM37.5 66.728c20.71 0 37.5-5.596 37.5-12.5 0-6.903-16.79-12.5-37.5-12.5S0 47.326 0 54.229c0 6.904 16.79 12.5 37.5 12.5Z" fill="#BEF5A4"/></svg>